<mxfile host="app.diagrams.net" modified="2023-10-03T07:49:21.303Z" agent="Mozilla/5.0 (Macintosh; Intel Mac OS X 10_15_7) AppleWebKit/537.36 (KHTML, like Gecko) Chrome/117.0.0.0 Safari/537.36" etag="PuWsBHHobdpEklEFN14b" version="21.5.0" type="device">
  <diagram name="Page-1" id="e3a06f82-3646-2815-327d-82caf3d4e204">
    <mxGraphModel dx="1865" dy="1345" grid="1" gridSize="10" guides="1" tooltips="1" connect="1" arrows="1" fold="1" page="1" pageScale="1.5" pageWidth="1169" pageHeight="826" background="none" math="0" shadow="0">
      <root>
        <mxCell id="0" style=";html=1;" />
        <mxCell id="1" style=";html=1;" parent="0" />
        <mxCell id="6a7d8f32e03d9370-61" value="&lt;font style=&quot;font-size: 36px;&quot;&gt;BD&lt;/font&gt;" style="whiteSpace=wrap;html=1;fillColor=#f8cecc;fontSize=14;strokeColor=none;verticalAlign=top;" parent="1" vertex="1">
          <mxGeometry x="1097" y="160" width="519" height="400" as="geometry" />
        </mxCell>
        <mxCell id="6a7d8f32e03d9370-60" value="&lt;font style=&quot;font-size: 36px;&quot;&gt;Autres&lt;/font&gt;" style="whiteSpace=wrap;html=1;fillColor=#d5e8d4;fontSize=14;strokeColor=none;verticalAlign=top;" parent="1" vertex="1">
          <mxGeometry x="740" y="860" width="519" height="360" as="geometry" />
        </mxCell>
        <mxCell id="6a7d8f32e03d9370-59" value="&lt;font style=&quot;font-size: 36px;&quot;&gt;API WordPress&lt;/font&gt;" style="whiteSpace=wrap;html=1;fillColor=#EDEDED;fontSize=14;strokeColor=none;verticalAlign=top;" parent="1" vertex="1">
          <mxGeometry x="600" y="160" width="323.5" height="680" as="geometry" />
        </mxCell>
        <mxCell id="6a7d8f32e03d9370-57" value="&lt;font style=&quot;font-size: 36px;&quot;&gt;Clients&lt;/font&gt;" style="whiteSpace=wrap;html=1;fillColor=#FFD470;gradientColor=none;fontSize=14;strokeColor=none;verticalAlign=top;" parent="1" vertex="1">
          <mxGeometry x="137" y="160" width="308" height="680" as="geometry" />
        </mxCell>
        <mxCell id="6a7d8f32e03d9370-62" value="&lt;font style=&quot;font-size: 50px;&quot;&gt;Notre Architecture&lt;/font&gt;" style="text;strokeColor=#6c8ebf;fillColor=#dae8fc;html=1;fontSize=50;fontStyle=1;verticalAlign=middle;align=center;rounded=1;glass=0;shadow=1;" parent="1" vertex="1">
          <mxGeometry x="446" y="40" width="861" height="80" as="geometry" />
        </mxCell>
        <mxCell id="K4G8PLhsPR8UPZYy0etM-6" style="edgeStyle=orthogonalEdgeStyle;rounded=1;orthogonalLoop=1;jettySize=auto;html=1;startArrow=classic;startFill=1;endSize=12;startSize=12;targetPerimeterSpacing=6;sourcePerimeterSpacing=6;strokeWidth=2;" parent="1" source="K4G8PLhsPR8UPZYy0etM-2" target="K4G8PLhsPR8UPZYy0etM-3" edge="1">
          <mxGeometry relative="1" as="geometry" />
        </mxCell>
        <mxCell id="K4G8PLhsPR8UPZYy0etM-2" value="" style="verticalLabelPosition=bottom;sketch=0;aspect=fixed;html=1;verticalAlign=top;strokeColor=none;align=center;outlineConnect=0;shape=mxgraph.citrix.pda;" parent="1" vertex="1">
          <mxGeometry x="259.03" y="251" width="63.94" height="130" as="geometry" />
        </mxCell>
        <mxCell id="K4G8PLhsPR8UPZYy0etM-10" style="edgeStyle=orthogonalEdgeStyle;rounded=1;orthogonalLoop=1;jettySize=auto;html=1;startArrow=classic;startFill=1;endSize=12;startSize=12;targetPerimeterSpacing=6;sourcePerimeterSpacing=6;strokeWidth=2;" parent="1" source="K4G8PLhsPR8UPZYy0etM-3" target="K4G8PLhsPR8UPZYy0etM-4" edge="1">
          <mxGeometry relative="1" as="geometry" />
        </mxCell>
        <mxCell id="K4G8PLhsPR8UPZYy0etM-13" style="edgeStyle=orthogonalEdgeStyle;orthogonalLoop=1;jettySize=auto;html=1;jumpSize=17;rounded=1;startArrow=classic;startFill=1;endSize=12;startSize=12;targetPerimeterSpacing=6;sourcePerimeterSpacing=6;strokeWidth=2;" parent="1" source="K4G8PLhsPR8UPZYy0etM-3" target="K4G8PLhsPR8UPZYy0etM-12" edge="1">
          <mxGeometry relative="1" as="geometry">
            <Array as="points">
              <mxPoint x="1000" y="500" />
              <mxPoint x="1000" y="370" />
            </Array>
          </mxGeometry>
        </mxCell>
        <mxCell id="K4G8PLhsPR8UPZYy0etM-20" style="edgeStyle=orthogonalEdgeStyle;rounded=1;orthogonalLoop=1;jettySize=auto;html=1;startArrow=classic;startFill=1;endSize=12;startSize=12;targetPerimeterSpacing=6;sourcePerimeterSpacing=6;strokeWidth=2;" parent="1" source="K4G8PLhsPR8UPZYy0etM-3" target="6a7d8f32e03d9370-60" edge="1">
          <mxGeometry relative="1" as="geometry">
            <Array as="points">
              <mxPoint x="1000" y="500" />
            </Array>
          </mxGeometry>
        </mxCell>
        <mxCell id="K4G8PLhsPR8UPZYy0etM-3" value="" style="verticalLabelPosition=bottom;sketch=0;aspect=fixed;html=1;verticalAlign=top;align=center;outlineConnect=0;shape=mxgraph.citrix.tower_server;" parent="1" vertex="1">
          <mxGeometry x="712.0500000000001" y="435" width="99.41" height="130" as="geometry" />
        </mxCell>
        <mxCell id="K4G8PLhsPR8UPZYy0etM-4" value="" style="verticalLabelPosition=bottom;sketch=0;aspect=fixed;html=1;verticalAlign=top;strokeColor=none;align=center;outlineConnect=0;shape=mxgraph.citrix.pda;" parent="1" vertex="1">
          <mxGeometry x="259.03" y="435" width="63.94" height="130" as="geometry" />
        </mxCell>
        <mxCell id="K4G8PLhsPR8UPZYy0etM-17" style="edgeStyle=orthogonalEdgeStyle;rounded=1;orthogonalLoop=1;jettySize=auto;html=1;startArrow=classic;startFill=1;endSize=12;startSize=12;targetPerimeterSpacing=6;sourcePerimeterSpacing=6;strokeWidth=2;" parent="1" source="K4G8PLhsPR8UPZYy0etM-5" target="K4G8PLhsPR8UPZYy0etM-3" edge="1">
          <mxGeometry relative="1" as="geometry" />
        </mxCell>
        <mxCell id="K4G8PLhsPR8UPZYy0etM-5" value="" style="verticalLabelPosition=bottom;sketch=0;aspect=fixed;html=1;verticalAlign=top;strokeColor=none;align=center;outlineConnect=0;shape=mxgraph.citrix.pda;" parent="1" vertex="1">
          <mxGeometry x="259.03" y="627" width="63.94" height="130" as="geometry" />
        </mxCell>
        <mxCell id="K4G8PLhsPR8UPZYy0etM-12" value="WordPress&lt;br style=&quot;font-size: 20px;&quot;&gt;&lt;br style=&quot;font-size: 20px;&quot;&gt;" style="verticalLabelPosition=bottom;sketch=0;aspect=fixed;html=1;verticalAlign=top;strokeColor=none;align=center;outlineConnect=0;shape=mxgraph.citrix.database;labelPosition=center;fontSize=20;horizontal=1;" parent="1" vertex="1">
          <mxGeometry x="1301.25" y="295" width="110.5" height="130" as="geometry" />
        </mxCell>
        <mxCell id="K4G8PLhsPR8UPZYy0etM-21" style="edgeStyle=orthogonalEdgeStyle;rounded=1;orthogonalLoop=1;jettySize=auto;html=1;entryX=0.5;entryY=1;entryDx=0;entryDy=0;startArrow=none;startFill=0;endSize=12;startSize=12;targetPerimeterSpacing=6;sourcePerimeterSpacing=6;strokeWidth=2;" parent="1" source="K4G8PLhsPR8UPZYy0etM-16" target="6a7d8f32e03d9370-57" edge="1">
          <mxGeometry relative="1" as="geometry" />
        </mxCell>
        <mxCell id="K4G8PLhsPR8UPZYy0etM-16" value="&lt;font color=&quot;#000000&quot; style=&quot;font-size: 18px;&quot;&gt;Serveur Mail&lt;/font&gt;" style="fontColor=#0066CC;verticalAlign=top;verticalLabelPosition=bottom;labelPosition=center;align=center;html=1;outlineConnect=0;fillColor=#CCCCCC;strokeColor=#6881B3;gradientColor=none;gradientDirection=north;strokeWidth=2;shape=mxgraph.networks.mail_server;aspect=fixed;" parent="1" vertex="1">
          <mxGeometry x="811.8800000000001" y="975" width="130" height="130" as="geometry" />
        </mxCell>
      </root>
    </mxGraphModel>
  </diagram>
</mxfile>
